<svg xmlns="http://www.w3.org/2000/svg" viewBox="0 0 543 92">
  <style>
    .char {
      fill: #7c86ff;
      stroke: #7c86ff;
    }
  </style>

  <title>Bouquet UI</title>

  <g class="char">
    <path d="m30.2,70.1l-30.2,0l0,-70l29.2,0q6.7,0 11.3,2q4.6,2 6.95,5.95q2.35,3.95 2.35,9.65q0,5.7 -3.15,9.7q-3.15,4 -8.75,5.5l0,-2q4.7,1 8.2,3.55q3.5,2.55 5.45,6.35q1.95,3.8 1.95,8.7q0,5 -1.55,8.85q-1.55,3.85 -4.6,6.45q-3.05,2.6 -7.35,3.95q-4.3,1.35 -9.8,1.35zm-19.4,-30.6l0,20.2l18.8,0q4.1,0 6.95,-1.2q2.85,-1.2 4.4,-3.55q1.55,-2.35 1.55,-5.65q0,-3.1 -1.65,-5.3q-1.65,-2.2 -4.65,-3.35q-3,-1.15 -7.1,-1.15l-18.3,0zm0,-29l0,18.6l17.8,0q3,0 5.35,-1.2q2.35,-1.2 3.7,-3.3q1.35,-2.1 1.35,-4.8q0,-4.5 -3,-6.9q-3,-2.4 -8.6,-2.4l-16.6,0z"/>
    <path d="m89,71.1q-7.7,0 -13.75,-3.55q-6.05,-3.55 -9.55,-9.7q-3.5,-6.15 -3.5,-14.05q0,-7.9 3.5,-14.05q3.5,-6.15 9.55,-9.7q6.05,-3.55 13.75,-3.55q7.6,0 13.65,3.55q6.05,3.55 9.55,9.7q3.5,6.15 3.5,14.05q0,7.9 -3.5,14.05q-3.5,6.15 -9.55,9.7q-6.05,3.55 -13.65,3.55zm0,-9.4q4.7,0 8.4,-2.35q3.7,-2.35 5.8,-6.4q2.1,-4.05 2,-9.15q0.1,-5.2 -2,-9.25q-2.1,-4.05 -5.8,-6.35q-3.7,-2.3 -8.4,-2.3q-4.7,0 -8.45,2.35q-3.75,2.35 -5.85,6.4q-2.1,4.05 -2,9.15q-0.1,5.1 2,9.15q2.1,4.05 5.85,6.4q3.75,2.35 8.45,2.35z"/>
    <path d="m126.9,50l0,-32.4l10.3,0l0,29.6q0,4.6 1.45,7.95q1.45,3.35 4.2,5.15q2.75,1.8 6.65,1.8q2.9,0 5.3,-0.95q2.4,-0.95 4.15,-2.65q1.75,-1.7 2.75,-4.1q1,-2.4 1,-5.2l0,-31.6l10.3,0l0,52.5l-10.3,0l0,-11l1.8,-1.2q-1.2,3.7 -4.05,6.7q-2.85,3 -6.75,4.75q-3.9,1.75 -8.4,1.75q-5.6,0 -9.75,-2.6q-4.15,-2.6 -6.4,-7.3q-2.25,-4.7 -2.25,-11.2z"/>
    <path d="m236,92.1l-10.3,0l0,-34.5l2,0q0,2.4 -1.6,4.75q-1.6,2.35 -4.3,4.35q-2.7,2 -6,3.2q-3.3,1.2 -6.8,1.2q-7.1,0 -12.7,-3.55q-5.6,-3.55 -8.85,-9.7q-3.25,-6.15 -3.25,-14.05q0,-7.9 3.2,-14.05q3.2,-6.15 8.75,-9.7q5.55,-3.55 12.55,-3.55q3.9,0 7.45,1.3q3.55,1.3 6.4,3.4q2.85,2.1 4.5,4.65q1.65,2.55 1.65,5.15l-3,0.2l0,-13.7l10.3,0l0,74.6zm-25.9,-30.5q4.7,0 8.3,-2.3q3.6,-2.3 5.65,-6.3q2.05,-4 2.05,-9.2q0,-5.2 -2.05,-9.25q-2.05,-4.05 -5.65,-6.35q-3.6,-2.3 -8.3,-2.3q-4.7,0 -8.3,2.35q-3.6,2.35 -5.65,6.4q-2.05,4.05 -2.05,9.15q0,5.1 2.05,9.15q2.05,4.05 5.65,6.35q3.6,2.3 8.3,2.3z"/>
    <path d="m250.4,50l0,-32.4l10.3,0l0,29.6q0,4.6 1.45,7.95q1.45,3.35 4.2,5.15q2.75,1.8 6.65,1.8q2.9,0 5.3,-0.95q2.4,-0.95 4.15,-2.65q1.75,-1.7 2.75,-4.1q1,-2.4 1,-5.2l0,-31.6l10.3,0l0,52.5l-10.3,0l0,-11l1.8,-1.2q-1.2,3.7 -4.05,6.7q-2.85,3 -6.75,4.75q-3.9,1.75 -8.4,1.75q-5.6,0 -9.75,-2.6q-4.15,-2.6 -6.4,-7.3q-2.25,-4.7 -2.25,-11.2z"/>
    <path d="m358.3,41.9l-0.1,4.4l-42.9,0l-2.3,-8.2l36.3,0l-1.5,1.7l0,-2.4q-0.3,-3.3 -2.2,-5.9q-1.9,-2.6 -4.8,-4.1q-2.9,-1.5 -6.3,-1.5q-5.4,0 -9.1,2.05q-3.7,2.05 -5.6,6q-1.9,3.95 -1.9,9.75q0,5.5 2.3,9.55q2.3,4.05 6.5,6.25q4.2,2.2 9.7,2.2q3.9,0 7.25,-1.3q3.35,-1.3 7.25,-4.7l5.2,7.3q-2.4,2.4 -5.85,4.2q-3.45,1.8 -7.3,2.85q-3.85,1.05 -7.55,1.05q-8.1,0 -14.35,-3.45q-6.25,-3.45 -9.8,-9.45q-3.55,-6 -3.55,-13.8q0,-6.2 2,-11.3q2,-5.1 5.55,-8.85q3.55,-3.75 8.5,-5.8q4.95,-2.05 10.75,-2.05q5.1,0 9.5,1.95q4.4,1.95 7.65,5.35q3.25,3.4 5,8.05q1.75,4.65 1.65,10.15z"/>
    <path d="m386.3,70.1l-10.3,0l0,-65.9l10.3,0l0,65.9zm12.2,-42.5l0,-10l-33.4,0l0,10l33.4,0z"/>
    <path d="m437.5,43.2l0,-43.2l10.8,0l0,42.3q0,5.1 2.4,9.15q2.4,4.05 6.35,6.45q3.95,2.4 8.65,2.4q5,0 9.05,-2.4q4.05,-2.4 6.45,-6.45q2.4,-4.05 2.4,-9.15l0,-42.3l10.3,0l0,43.2q0,7.9 -3.65,14.15q-3.65,6.25 -10.05,9.8q-6.4,3.55 -14.5,3.55q-8.1,0 -14.5,-3.55q-6.4,-3.55 -10.05,-9.8q-3.65,-6.25 -3.65,-14.15z"/>
    <path d="m543.3,70.1l-33.4,0l0,-10l11.3,0l0,-50l-11.3,0l0,-10l33.4,0l0,10l-11.3,0l0,50l11.3,0l0,10z"/>
  </g>
  <rect class="char" height="10" width="9.3" y="18" x="376.5" />
</svg>