<svg xmlns="http://www.w3.org/2000/svg" viewBox="0 0 1200 240">
  <style>
    .char {
      fill: #7c86ff;
      stroke: #7c86ff;
    }
  </style>

  <title>Bouquet UI with Logo</title>

  <path fill="#2d5a57" d="m1149.08661,79.58716c-6.29982,6.41981 -6.29982,17.09951 0.29999,23.69931l0.67198,0.67198a17.99948,17.99948 0 0 0 -1.16996,1.64995c-4.33787,-2.54992 -10.70968,-1.80595 -15.34156,2.89792l-60.47824,61.79821c-4.31987,4.43987 -5.09985,10.2777 -2.99391,14.47758q-0.77998,0.49798 -1.49995,1.07397l-0.65999,-0.67198c-6.5998,-6.5998 -17.2795,-6.5998 -23.69931,-0.29999l-7.91977,7.85977c-0.41999,0.41999 -0.35999,1.01997 0.06,1.43995c7.54178,6.77981 19.20544,6.77981 26.61523,-0.22799c-0.47998,1.48796 -0.73798,3.05991 -0.76198,4.66786l0,11.15968c0,0.53998 0.47998,1.01997 1.01997,0.95997c10.3197,-0.53998 18.65945,-9.05974 18.65945,-19.55943l0,-0.35399l77.93773,14.09959c0.41999,0.11999 0.77998,0.41999 0.83998,0.83998l4.85986,24.83928c0.71998,3.53989 5.15985,4.43987 8.03977,1.55996l24.71928,-24.71928c2.87992,-2.87992 1.97995,-7.31979 -1.55996,-8.03977l-15.35956,-2.99991l-9.95971,-1.91994c-0.41999,-0.06 -0.77998,-0.35999 -0.83998,-0.77998l-16.01953,-76.43777l0.83998,0c10.49969,0 19.01945,-8.33975 19.55943,-18.65945c0.06,-0.53998 -0.41999,-1.01997 -0.95997,-1.01997l-11.15968,0q-2.42993,0.036 -4.66786,0.75598c7.0078,-7.40979 7.0138,-19.07345 0.22799,-26.62123a1.01997,1.01997 0 0 0 -1.43995,-0.06l-7.85977,7.91977l0,-0.00001z"/>
  <path fill="#519a95" d="m1160.48028,205.33151l1.36196,6.49181l16.09153,-16.08553l-6.8158,-1.30797l-10.63769,10.90168z"/>
  <path fill="#0084d1" d="m1123.34736,126.3258l27.83919,-11.57966l-6.8998,-16.55951c-4.31987,-10.3797 -12.59963,-18.59946 -23.03932,-22.79934a3.76189,3.76189 0 0 0 -4.85986,2.03994a41.99878,41.99878 0 0 0 0,32.15907l6.9598,16.73951zm-31.13909,29.69914l-11.57966,27.83919l-16.55951,-6.8998c-10.3797,-4.31987 -18.59946,-12.59963 -22.79934,-23.03932c-0.77998,-1.91994 0.17999,-4.07988 2.03994,-4.85986a41.99878,41.99878 0 0 1 32.15907,0l16.73951,6.9598z"/>
  <path fill="#00bcff" d="m1140.74685,66.26755c1.25996,-0.53998 2.87992,0.41999 3.53989,2.03994l7.49978,17.99948c2.03994,4.97986 4.01988,12.65963 3.95988,17.39949c0.06,11.69966 -6.35982,19.37944 -15.83954,23.33932c-10.2597,4.19988 -21.23938,2.45993 -29.63914,-7.37978c-1.97995,-2.33993 -4.85986,-7.61978 -6.35982,-10.5597c-0.53998,-1.01997 -1.01997,-2.09994 -1.49995,-3.1799l0.06,0l-7.1398,-17.2195c-0.65999,-1.67995 -0.17999,-3.4799 1.13997,-4.01988c9.05974,-3.77989 22.31935,6.23981 31.13909,17.81948c1.55996,2.03994 4.07988,1.01997 3.7199,-1.49995c-1.97995,-14.45958 0.29999,-31.0191 9.41973,-34.73899m-108.59684,107.15689c-0.53998,1.25996 0.41999,2.87992 2.03994,3.53989l17.99948,7.49978c4.97986,2.03994 12.65963,4.01988 17.39949,3.95988c11.69966,0.06 19.37944,-6.35982 23.33932,-15.83954c4.19988,-10.2597 2.45993,-21.23938 -7.37978,-29.63914c-2.33993,-1.97995 -7.61978,-4.85986 -10.5597,-6.35982c-1.01997,-0.53998 -2.09994,-1.01997 -3.1799,-1.49995l0,0.06l-17.2195,-7.1398c-1.67995,-0.65999 -3.4799,-0.17999 -4.01988,1.13997c-3.77989,9.05974 6.23981,22.31935 17.81948,31.13909c2.03994,1.55996 1.01997,4.07988 -1.49995,3.7199c-14.45958,-1.97995 -31.0191,0.29999 -34.73899,9.41973"/>
  <path fill="#faa19b" d="m1070.06891,150.20511c-3.77989,-5.99983 -1.61996,-13.91959 4.67987,-17.09951l5.69983,-2.87992l-4.67987,-3.89989c-5.33984,-4.49986 -5.75983,-12.53963 -0.95997,-17.57949c4.91985,-5.09985 13.13962,-4.85986 17.75948,0.47998l3.77989,4.37987l2.63992,-5.69983c2.99991,-6.41981 10.79969,-8.87975 16.91951,-5.33984c5.99983,3.4799 7.79977,11.39966 3.89989,17.1595l-3.05991,4.49986l6.9598,0.59998c7.01979,0.59998 12.05965,7.07979 10.79969,14.0396a12.05965,12.05965 0 0 1 -14.75957,9.53972l-5.03986,-1.07997l1.55996,4.61987c1.97995,6.6598 -2.15994,13.61961 -8.93974,15.11956c-6.8998,1.49995 -13.61961,-3.23991 -14.45958,-10.2597l-0.89997,-6.8398l-4.67987,3.4199c-5.57984,4.19988 -13.4996,2.69992 -17.2195,-3.1799"/>
  <path fill="#eb5e41" d="m1098.44809,143.00531a11.33967,11.33967 0 1 0 0,-22.67934a11.33967,11.33967 0 0 0 0,22.67934"/>

  <g class="char">
    <path d="m54.99146,193.79286l-54.99146,0l0,-127.46365l53.17055,0q12.20009,0 20.57627,3.64182q8.37618,3.64182 12.65532,10.83441q4.27914,7.19259 4.27914,17.57177q0,10.37918 -5.73586,17.66282q-5.73586,7.28364 -15.93296,10.015l0,-3.64182q8.55827,1.82091 14.93146,6.46423q6.37318,4.64332 9.92396,11.56277q3.55077,6.91946 3.55077,15.84191q0,9.10455 -2.82241,16.11505q-2.82241,7.0105 -8.37618,11.74486q-5.55377,4.73436 -13.38368,7.19259q-7.82991,2.45823 -17.84491,2.45823l-0.00001,0.00001zm-35.32564,-55.71982l0,36.78237l34.23309,0q7.46573,0 12.65532,-2.18509q5.18959,-2.18509 8.012,-6.46423q2.82241,-4.27914 2.82241,-10.28814q0,-5.64482 -3.0045,-9.65082q-3.0045,-4.006 -8.46723,-6.10005q-5.46273,-2.09405 -12.92846,-2.09405l-33.32264,0l0.00001,0.00001zm0,-52.80637l0,33.86891l32.41219,0q5.46273,0 9.74186,-2.18509q4.27914,-2.18509 6.73736,-6.009q2.45823,-3.82391 2.45823,-8.74036q0,-8.19409 -5.46273,-12.56427q-5.46273,-4.37018 -15.65982,-4.37018l-30.22709,0l0,-0.00001z"/>
    <path d="m162.06093,195.61376q-14.021,0 -25.0375,-6.46423q-11.0165,-6.46423 -17.38968,-17.66282q-6.37318,-11.19859 -6.37318,-25.58378q0,-14.38518 6.37318,-25.58378q6.37318,-11.19859 17.38968,-17.66282q11.0165,-6.46423 25.0375,-6.46423q13.83891,0 24.85541,6.46423q11.0165,6.46423 17.38968,17.66282q6.37318,11.19859 6.37318,25.58378q0,14.38518 -6.37318,25.58378q-6.37318,11.19859 -17.38968,17.66282q-11.0165,6.46423 -24.85541,6.46423zm0,-17.11655q8.55827,0 15.29564,-4.27914q6.73736,-4.27914 10.56127,-11.65382q3.82391,-7.37468 3.64182,-16.66132q0.18209,-9.46873 -3.64182,-16.84341q-3.82391,-7.37468 -10.56127,-11.56277q-6.73736,-4.18809 -15.29564,-4.18809q-8.55827,0 -15.38668,4.27914q-6.82841,4.27914 -10.65232,11.65382q-3.82391,7.37468 -3.64182,16.66132q-0.18209,9.28664 3.64182,16.66132q3.82391,7.37468 10.65232,11.65382q6.82841,4.27914 15.38668,4.27914l0,-0.00001z"/>
    <path d="m231.07339,157.19258l0,-58.99746l18.75537,0l0,53.89891q0,8.37618 2.64032,14.47623q2.64032,6.10005 7.64782,9.37768q5.0075,3.27764 12.10905,3.27764q5.28064,0 9.65082,-1.72986q4.37018,-1.72986 7.55677,-4.82541q3.18659,-3.09555 5.0075,-7.46573q1.82091,-4.37018 1.82091,-9.46873l0,-57.54073l18.75537,0l0,95.59774l-18.75537,0l0,-20.03l3.27764,-2.18509q-2.18509,6.73736 -7.37468,12.20009q-5.18959,5.46273 -12.29114,8.64932q-7.10155,3.18659 -15.29564,3.18659q-10.19709,0 -17.75387,-4.73436q-7.55677,-4.73436 -11.65382,-13.29264q-4.09705,-8.55827 -4.09705,-20.39418l0,-0.00001z"/>
    <path d="m429.73459,233.85286l-18.75537,0l0,-62.82137l3.64182,0q0,4.37018 -2.91345,8.64932q-2.91345,4.27914 -7.82991,7.92096q-4.91646,3.64182 -10.92546,5.82691q-6.009,2.18509 -12.38218,2.18509q-12.92846,0 -23.12555,-6.46423q-10.19709,-6.46423 -16.11505,-17.66282q-5.91796,-11.19859 -5.91796,-25.58378q0,-14.38518 5.82691,-25.58378q5.82691,-11.19859 15.93296,-17.66282q10.10605,-6.46423 22.85241,-6.46423q7.10155,0 13.56577,2.36718q6.46423,2.36718 11.65382,6.19109q5.18959,3.82391 8.19409,8.46723q3.0045,4.64332 3.0045,9.37768l-5.46273,0.36418l0,-24.94646l18.75537,0l0,135.83983l0.00001,0.00002zm-47.16155,-55.53773q8.55827,0 15.11355,-4.18809q6.55527,-4.18809 10.28814,-11.47173q3.73286,-7.28364 3.73286,-16.75237q0,-9.46873 -3.73286,-16.84341q-3.73286,-7.37468 -10.28814,-11.56277q-6.55527,-4.18809 -15.11355,-4.18809q-8.55827,0 -15.11355,4.27914q-6.55527,4.27914 -10.28814,11.65382q-3.73286,7.37468 -3.73286,16.66132q0,9.28664 3.73286,16.66132q3.73286,7.37468 10.28814,11.56277q6.55527,4.18809 15.11355,4.18809z"/>
    <path d="m455.95568,157.19258l0,-58.99746l18.75537,0l0,53.89891q0,8.37618 2.64032,14.47623q2.64032,6.10005 7.64782,9.37768q5.0075,3.27764 12.10905,3.27764q5.28064,0 9.65082,-1.72986q4.37018,-1.72986 7.55677,-4.82541q3.18659,-3.09555 5.0075,-7.46573q1.82091,-4.37018 1.82091,-9.46873l0,-57.54073l18.75537,0l0,95.59774l-18.75537,0l0,-20.03l3.27764,-2.18509q-2.18509,6.73736 -7.37468,12.20009q-5.18959,5.46273 -12.29114,8.64932q-7.10155,3.18659 -15.29564,3.18659q-10.19709,0 -17.75387,-4.73436q-7.55677,-4.73436 -11.65382,-13.29264q-4.09705,-8.55827 -4.09705,-20.39418l0,-0.00001z"/>
    <path d="m652.43179,142.44321l-0.18209,8.012l-78.11701,0l-4.18809,-14.93146l66.09901,0l-2.73136,3.09555l0,-4.37018q-0.54627,-6.009 -4.006,-10.74336q-3.45973,-4.73436 -8.74036,-7.46573q-5.28064,-2.73136 -11.47173,-2.73136q-9.83291,0 -16.57027,3.73286q-6.73736,3.73286 -10.19709,10.92546q-3.45973,7.19259 -3.45973,17.75387q0,10.015 4.18809,17.38968q4.18809,7.37468 11.83591,11.38068q7.64782,4.006 17.66282,4.006q7.10155,0 13.20159,-2.36718q6.10005,-2.36718 13.20159,-8.55827l9.46873,13.29264q-4.37018,4.37018 -10.65232,7.64782q-6.28214,3.27764 -13.29264,5.18959q-7.0105,1.91195 -13.74787,1.91195q-14.74937,0 -26.13005,-6.28214q-11.38068,-6.28214 -17.84491,-17.20759q-6.46423,-10.92546 -6.46423,-25.12855q0,-11.28964 3.64182,-20.57627q3.64182,-9.28664 10.10605,-16.11505q6.46423,-6.82841 15.47773,-10.56127q9.0135,-3.73286 19.57477,-3.73286q9.28664,0 17.29864,3.55077q8.012,3.55077 13.92996,9.74186q5.91796,6.19109 9.10455,14.65832q3.18659,8.46723 3.0045,18.48223l-0.00001,-0.00001z"/>
    <path d="m703.41725,193.79286l-18.75537,0l0,-119.99792l18.75537,0l0,119.99792zm22.21509,-77.38864l0,-18.20909l-60.81837,0l0,18.20909l60.81837,0z"/>
    <path d="m796.64781,144.8104l0,-78.66328l19.66582,0l0,77.02446q0,9.28664 4.37018,16.66132q4.37018,7.37468 11.56277,11.74486q7.19259,4.37018 15.75087,4.37018q9.10455,0 16.47923,-4.37018q7.37468,-4.37018 11.74486,-11.74486q4.37018,-7.37468 4.37018,-16.66132l0,-77.02446l18.75537,0l0,78.66328q0,14.38518 -6.64632,25.76587q-6.64632,11.38068 -18.30014,17.84491q-11.65382,6.46423 -26.40318,6.46423q-14.74937,0 -26.40318,-6.46423q-11.65382,-6.46423 -18.30014,-17.84491q-6.64632,-11.38068 -6.64632,-25.76587z"/>
    <path d="m989.30001,193.79286l-60.81837,0l0,-18.20909l20.57627,0l0,-91.04546l-20.57627,0l0,-18.20909l60.81837,0l0,18.20909l-20.57627,0l0,91.04546l20.57627,0l0,18.20909z"/>
  </g>
  <rect x="685.57234" y="98.92349" width="16.93446" height="18.20909" class="char"/>

</svg>